<?xml version="1.0" encoding="utf-8"?>
<!-- Generator: Adobe Illustrator 15.1.0, SVG Export Plug-In . SVG Version: 6.00 Build 0)  -->
<!DOCTYPE svg PUBLIC "-//W3C//DTD SVG 1.1//EN" "http://www.w3.org/Graphics/SVG/1.1/DTD/svg11.dtd">
<svg version="1.1" id="Layer_1" xmlns="http://www.w3.org/2000/svg" xmlns:xlink="http://www.w3.org/1999/xlink" x="0px" y="0px"
	 width="466.477px" height="166.492px" viewBox="0 0 466.477 166.492" enable-background="new 0 0 466.477 166.492"
	 xml:space="preserve">
<g>
	<g>
		<g>
			<g>
				<g>
					<rect x="23.1" y="32.415" fill="#121514" width="101.66" height="101.661"/>
				</g>
			</g>
		</g>
		<polygon fill="#758553" points="86.986,44.082 86.986,70.192 60.874,70.192 60.874,44.082 34.768,44.082 34.768,70.192 
			34.768,96.304 60.874,96.304 34.768,122.414 60.874,122.414 86.986,122.414 113.092,122.414 86.986,96.304 113.092,96.304 
			113.092,70.192 113.092,44.082 		"/>
		<g>
			<g>
				<path fill="#121514" d="M161.186,134.076V88.652L136.41,32.415h23.924l12.244,34.74l12.245-34.74h23.918l-24.772,56.237v45.424
					H161.186z"/>
				<path fill="#121514" d="M248.463,32.415l22.777,101.661h-22.635l-2.561-15.518H228.25l-2.563,15.518h-22.641l22.786-101.661
					H248.463z M231.236,100.183h11.676l-5.836-35.735L231.236,100.183z"/>
				<path fill="#121514" d="M312.817,134.076h-22.635V52.204h-20.367V32.415h63.355v19.789h-20.354V134.076z"/>
				<path fill="#121514" d="M364.354,72.283h17.514v19.793h-17.514v22.209h24.637v19.791h-47.271V32.415h47.271v19.789h-24.637
					V72.283z"/>
				<path fill="#121514" d="M420.168,114.285h23.209v19.791h-45.844V32.415h22.635V114.285z"/>
			</g>
		</g>
	</g>
	<g>
		<rect x="17.044" y="11.914" width="432.388" height="6.056"/>
	</g>
	<g>
		<rect x="17.044" y="148.523" width="432.388" height="6.055"/>
	</g>
</g>
</svg>
